<?xml version="1.0" standalone="no"?>
<!DOCTYPE svg PUBLIC "-//W3C//DTD SVG 20010904//EN"
 "http://www.w3.org/TR/2001/REC-SVG-20010904/DTD/svg10.dtd">
<svg version="1.0" xmlns="http://www.w3.org/2000/svg"
 width="1152.000000pt" height="1152.000000pt" viewBox="0 0 1152.000000 1152.000000"
 preserveAspectRatio="xMidYMid meet">
<metadata>
Created by potrace 1.14, written by Peter Selinger 2001-2017
</metadata>
<g transform="translate(0.000000,1152.000000) scale(0.100000,-0.100000)"
fill="#000000" stroke="none">
<path d="M3359 11516 c-2 -2 -29 -6 -59 -10 -132 -15 -247 -39 -355 -74 -100
-32 -230 -84 -233 -94 -2 -4 -9 -8 -15 -8 -17 -1 -71 -28 -166 -85 -256 -154
-504 -401 -653 -651 -57 -97 -121 -225 -121 -241 0 -7 -4 -13 -9 -13 -4 0 -8
-8 -8 -18 0 -10 -7 -28 -16 -40 -8 -12 -12 -27 -9 -32 3 -6 1 -10 -4 -10 -6 0
-10 -3 -9 -7 1 -5 -6 -33 -16 -64 -9 -31 -19 -65 -21 -75 -2 -11 -9 -37 -15
-59 -6 -22 -13 -56 -16 -75 -2 -19 -7 -46 -9 -60 -3 -14 -9 -50 -13 -80 -9
-73 -9 -8059 1 -8130 4 -30 12 -80 18 -110 5 -30 11 -64 13 -75 1 -12 5 -26 9
-32 4 -6 9 -28 13 -49 3 -22 11 -48 17 -59 6 -11 10 -22 10 -25 0 -3 3 -15 8
-28 5 -13 9 -26 9 -30 0 -16 84 -212 92 -212 4 0 8 -8 8 -17 0 -10 9 -29 20
-43 11 -14 20 -29 20 -33 0 -15 109 -178 168 -252 49 -62 207 -224 273 -281
30 -25 140 -107 154 -114 5 -3 35 -21 65 -41 133 -87 397 -202 510 -222 14 -3
43 -10 66 -16 59 -16 138 -30 213 -39 85 -9 4304 -9 4396 0 61 7 105 14 203
33 13 2 32 7 42 10 10 3 29 8 42 11 13 3 28 6 33 8 16 3 88 27 105 33 8 4 17
7 20 7 111 27 437 213 559 319 66 58 227 221 268 272 112 139 279 431 303 530
1 6 11 32 21 59 29 72 71 236 65 252 -3 8 -2 14 3 14 8 0 16 38 29 150 10 79
9 374 -2 445 -4 33 -9 71 -11 85 -7 76 -67 284 -112 395 -36 86 -86 189 -95
193 -5 2 -8 8 -8 14 0 10 -68 128 -79 138 -3 3 -22 28 -40 55 -19 28 -38 52
-41 55 -3 3 -13 15 -21 27 -15 21 -124 145 -192 218 -16 16 -59 63 -95 103
-37 41 -83 91 -102 111 -19 21 -72 78 -116 127 -45 49 -99 108 -120 130 -22
23 -69 75 -106 115 -36 41 -77 86 -90 100 -59 65 -206 225 -238 259 -19 21
-55 59 -79 86 -63 71 -211 232 -246 269 -39 41 -195 212 -217 237 -28 32 -200
220 -235 255 -17 18 -30 33 -28 33 1 0 -23 27 -54 59 -31 33 -86 92 -122 133
-37 40 -77 85 -90 99 -132 144 -182 198 -226 246 -29 31 -53 59 -53 63 0 9 19
70 30 95 5 11 30 76 55 145 49 130 87 231 100 265 5 11 9 22 10 25 1 3 5 12 8
20 4 8 20 53 37 100 17 47 34 94 39 105 19 42 71 182 71 189 0 5 6 22 14 39
22 53 144 368 150 392 5 16 17 48 28 75 6 14 13 32 14 41 2 8 10 29 19 45 8
16 15 34 15 40 0 6 8 29 17 50 9 22 17 41 18 44 2 9 45 124 55 145 4 11 25 65
45 120 44 119 63 171 78 205 6 14 11 27 12 30 4 17 19 59 30 85 8 17 33 82 56
145 60 164 75 202 86 230 6 14 22 57 36 95 14 39 31 84 38 100 7 17 13 32 13
35 2 10 39 106 52 137 8 17 14 37 14 45 0 8 4 18 8 24 10 11 41 92 47 124 2
12 9 28 16 36 6 8 8 14 4 14 -4 0 -2 7 5 15 7 8 10 15 6 15 -3 0 -1 12 5 28 6
15 12 34 15 42 12 50 24 99 28 125 3 17 8 39 10 51 37 182 35 451 -5 662 -11
59 -22 120 -25 136 -3 16 -9 39 -14 50 -4 12 -8 24 -9 28 -3 17 -55 156 -73
198 -53 118 -97 203 -135 257 -13 17 -23 36 -23 40 0 5 -8 18 -17 29 -10 11
-30 36 -44 57 -77 112 -356 397 -388 397 -4 0 -17 9 -29 21 -26 24 -146 99
-244 152 -109 60 -333 145 -423 161 -11 2 -41 9 -67 15 -26 6 -66 13 -90 16
-24 3 -54 8 -68 12 -25 7 -2833 16 -2841 9z m261 -1278 c0 -4 11 -3 25 2 15 6
25 6 25 0 0 -5 12 -5 30 0 17 5 30 5 30 0 0 -5 13 -5 30 0 16 5 32 5 34 1 6
-8 60 -6 75 3 5 4 13 2 16 -4 4 -7 11 -8 18 -2 7 5 21 6 32 2 11 -4 30 -4 43
1 14 5 22 5 22 -2 0 -6 7 -6 19 1 14 7 22 7 26 0 4 -7 11 -7 18 -2 7 5 21 6
32 2 11 -4 30 -4 43 1 14 5 22 5 22 -2 0 -6 7 -6 19 1 14 7 22 7 26 0 4 -7 11
-7 18 -2 7 5 21 6 32 2 11 -4 30 -4 43 1 14 5 22 5 22 -2 0 -6 7 -6 19 1 14 7
22 7 26 0 4 -7 11 -7 18 -2 7 5 21 6 32 2 11 -4 30 -4 43 1 14 5 22 5 22 -2 0
-6 7 -6 19 1 14 7 22 7 26 0 4 -7 11 -7 18 -2 7 5 21 6 32 2 11 -4 30 -4 43 1
14 5 22 5 22 -2 0 -6 7 -6 19 1 14 7 22 7 26 0 4 -7 11 -7 18 -2 7 5 21 6 32
2 11 -4 30 -4 43 1 14 5 22 5 22 -2 0 -6 7 -6 19 1 14 7 22 7 26 0 4 -7 11 -7
18 -2 7 5 21 6 32 2 11 -4 30 -4 43 1 14 5 22 5 22 -2 0 -6 7 -6 19 1 14 7 22
7 26 0 4 -7 11 -7 18 -2 7 5 21 6 32 2 11 -4 30 -3 43 1 14 6 31 5 42 -1 13
-7 21 -7 25 0 4 6 12 7 23 1 9 -5 26 -5 39 0 13 5 25 4 28 -2 4 -6 13 -6 23 0
10 6 23 6 34 0 10 -6 19 -5 23 1 3 6 15 6 30 0 15 -6 27 -6 30 0 4 6 13 7 24
1 10 -6 23 -6 31 -1 8 5 22 4 32 -1 10 -5 18 -6 18 -2 0 4 14 8 30 8 17 0 30
-3 30 -7 0 -4 11 -3 25 2 16 6 25 6 25 0 0 -6 9 -6 25 0 14 5 27 5 30 0 3 -5
18 -5 35 0 18 5 30 5 30 0 0 -6 9 -6 23 -1 13 5 30 5 39 0 10 -6 19 -6 23 0 3
7 15 7 30 1 15 -6 27 -6 30 1 4 5 13 6 22 0 9 -5 29 -5 45 -1 15 5 28 6 28 2
0 -4 28 -8 62 -9 74 -3 209 -44 238 -73 3 -3 18 -12 34 -20 47 -24 133 -107
182 -175 24 -35 44 -65 44 -68 0 -2 8 -22 17 -43 9 -22 17 -41 18 -44 1 -3 4
-12 8 -20 34 -89 37 -237 8 -348 -11 -39 -109 -310 -130 -357 -24 -53 -54
-139 -54 -151 0 -8 -3 -14 -6 -14 -7 0 -33 -79 -31 -94 1 -5 -3 -12 -10 -16
-6 -4 -13 -13 -14 -21 -2 -8 -6 -21 -9 -29 -3 -8 -40 -107 -82 -220 -73 -196
-120 -320 -146 -385 -7 -16 -13 -32 -14 -35 -7 -29 -30 -88 -38 -97 -5 -7 -7
-13 -4 -13 3 0 -5 -25 -18 -55 -14 -30 -25 -58 -26 -63 -1 -4 -5 -17 -10 -30
-5 -13 -12 -34 -15 -48 -3 -13 -10 -27 -15 -30 -5 -3 -9 -13 -9 -22 0 -9 -6
-29 -14 -44 -11 -21 -35 -84 -41 -108 -2 -7 -14 -37 -36 -95 -11 -27 -59 -153
-106 -280 -47 -126 -91 -243 -98 -260 -12 -26 -26 -68 -30 -85 -1 -3 -8 -21
-16 -40 -9 -19 -27 -66 -40 -105 -13 -38 -26 -72 -29 -75 -3 -3 -12 -25 -20
-50 -8 -25 -20 -56 -27 -70 -7 -14 -13 -32 -13 -41 0 -9 -3 -19 -7 -23 -5 -4
-8 -11 -8 -14 -1 -8 -71 -195 -86 -227 -5 -11 -22 -56 -37 -100 -32 -89 -105
-283 -158 -418 -19 -48 -34 -94 -34 -102 0 -8 -5 -15 -12 -15 -6 0 -9 -3 -6
-6 3 -3 -5 -33 -19 -66 l-24 -60 23 -27 c13 -14 37 -40 53 -57 17 -18 64 -69
105 -114 41 -46 86 -95 100 -110 14 -15 59 -64 100 -110 41 -46 93 -102 115
-126 70 -75 193 -208 215 -234 24 -28 187 -205 240 -261 19 -21 64 -70 100
-110 36 -39 79 -87 95 -104 17 -18 68 -75 115 -126 97 -106 101 -111 218 -238
48 -52 94 -102 103 -112 8 -10 60 -67 115 -126 144 -157 144 -156 209 -228 33
-37 78 -86 100 -109 22 -24 76 -82 120 -130 44 -49 91 -100 105 -115 14 -15
61 -67 105 -116 44 -48 96 -105 115 -125 19 -20 71 -76 115 -125 44 -48 91
-100 105 -115 47 -51 169 -185 209 -230 23 -25 41 -51 41 -57 0 -7 4 -13 8
-13 6 0 50 -77 57 -100 1 -3 4 -12 8 -20 19 -48 40 -163 37 -210 -1 -19 -3
-53 -4 -75 -3 -45 -29 -143 -52 -192 -8 -18 -14 -36 -14 -39 1 -4 -3 -10 -8
-13 -5 -3 -16 -19 -25 -36 -24 -46 -104 -132 -161 -175 -46 -33 -91 -57 -161
-85 -41 -16 -122 -32 -158 -31 -15 1 -27 -2 -27 -6 0 -4 -11 -3 -25 2 -16 6
-25 6 -25 0 0 -6 -9 -6 -25 0 -14 5 -25 6 -25 2 0 -9 -75 -6 -90 3 -6 3 -10 2
-10 -4 0 -6 -11 -6 -30 -1 -18 5 -32 5 -35 -1 -4 -5 -14 -5 -25 1 -12 6 -21 7
-25 0 -4 -6 -15 -6 -30 0 -14 5 -25 6 -25 2 0 -8 -85 -6 -106 2 -8 3 -14 2
-14 -2 0 -4 -11 -7 -25 -7 -14 0 -25 3 -25 7 0 4 -11 3 -25 -2 -15 -6 -26 -6
-30 1 -4 6 -13 6 -23 0 -9 -5 -26 -5 -39 0 -14 5 -23 5 -23 -1 0 -5 -12 -5
-30 0 -18 5 -32 5 -35 -1 -4 -5 -14 -5 -25 1 -12 6 -21 7 -25 0 -4 -6 -15 -6
-30 0 -14 5 -25 6 -25 2 0 -8 -85 -6 -106 2 -8 3 -14 2 -14 -2 0 -4 -11 -7
-25 -7 -14 0 -25 3 -25 7 0 4 -11 3 -25 -2 -15 -6 -26 -6 -30 1 -4 6 -13 6
-23 0 -9 -5 -26 -5 -39 0 -14 5 -23 5 -23 -1 0 -5 -12 -5 -30 0 -18 5 -32 5
-35 -1 -4 -5 -14 -5 -25 1 -12 6 -21 7 -25 0 -4 -6 -15 -6 -30 0 -14 5 -25 6
-25 2 0 -8 -85 -6 -106 2 -8 3 -14 2 -14 -2 0 -4 -11 -7 -25 -7 -14 0 -25 3
-25 7 0 4 -11 3 -25 -2 -15 -6 -26 -6 -30 1 -4 6 -13 6 -23 0 -9 -5 -26 -5
-39 0 -14 5 -23 5 -23 -1 0 -5 -12 -5 -30 0 -18 5 -32 5 -35 -1 -4 -5 -14 -5
-25 1 -12 6 -21 7 -25 0 -4 -6 -15 -6 -30 0 -14 5 -25 6 -25 2 0 -8 -85 -6
-106 2 -8 3 -14 2 -14 -2 0 -4 -11 -7 -25 -7 -14 0 -25 3 -25 7 0 4 -11 3 -25
-2 -15 -6 -26 -6 -30 1 -4 6 -13 6 -23 0 -9 -5 -26 -5 -39 0 -14 5 -23 5 -23
-1 0 -5 -12 -5 -30 0 -18 5 -32 5 -35 -1 -4 -5 -14 -5 -25 1 -12 6 -21 7 -25
0 -4 -6 -15 -6 -30 0 -14 5 -25 6 -25 2 0 -8 -85 -6 -106 2 -8 3 -14 2 -14 -2
0 -4 -11 -7 -25 -7 -14 0 -25 3 -25 7 0 4 -11 3 -25 -2 -15 -6 -26 -6 -30 1
-4 6 -13 6 -23 0 -9 -5 -26 -5 -39 0 -14 5 -23 5 -23 -1 0 -5 -12 -5 -30 0
-18 5 -32 5 -35 -1 -4 -5 -14 -5 -25 1 -12 6 -21 7 -25 0 -4 -6 -15 -6 -30 0
-14 5 -25 6 -25 2 0 -8 -85 -6 -106 2 -8 3 -14 2 -14 -2 0 -4 -11 -7 -25 -7
-14 0 -25 3 -25 7 0 4 -11 3 -25 -2 -15 -6 -26 -6 -30 1 -4 6 -13 6 -23 0 -9
-5 -26 -5 -39 0 -14 5 -23 5 -23 -1 0 -5 -12 -5 -30 0 -18 5 -32 5 -35 -1 -4
-5 -14 -5 -25 1 -12 6 -21 7 -25 0 -4 -6 -15 -6 -30 0 -14 5 -25 6 -25 2 0 -8
-85 -6 -106 2 -8 3 -14 2 -14 -2 0 -4 -11 -7 -25 -7 -14 0 -25 3 -25 7 0 4
-11 3 -25 -2 -15 -6 -26 -6 -30 1 -4 6 -13 6 -23 0 -9 -5 -26 -5 -39 0 -14 5
-23 5 -23 -1 0 -5 -12 -5 -30 0 -18 5 -32 5 -35 -1 -4 -5 -14 -5 -25 1 -12 6
-21 7 -25 0 -4 -6 -15 -6 -30 0 -14 5 -25 6 -25 2 0 -4 -15 -7 -34 -7 -19 0
-32 3 -29 7 2 5 -7 4 -21 -2 -16 -6 -26 -6 -26 0 0 6 -9 6 -25 0 -15 -6 -26
-6 -30 1 -4 6 -13 6 -23 0 -10 -6 -23 -6 -34 0 -10 6 -19 5 -23 -1 -4 -6 -10
-8 -15 -5 -5 3 -29 8 -52 10 -122 11 -237 51 -317 112 -89 66 -216 228 -225
286 -1 6 -4 17 -8 22 -14 23 -31 105 -33 167 -2 37 -6 71 -9 77 -4 5 -2 12 4
16 6 4 7 12 1 24 -6 10 -6 23 -1 31 5 8 5 19 0 25 -5 6 -5 17 0 25 4 7 4 24 0
36 -6 14 -5 26 0 29 7 4 6 13 0 25 -6 12 -7 21 0 25 6 4 6 15 0 30 -6 16 -6
25 0 25 5 0 7 6 4 13 -8 23 -10 97 -2 97 4 0 3 11 -2 25 -6 16 -6 25 0 25 6 0
6 9 0 25 -6 16 -6 25 0 25 6 0 6 9 1 23 -5 13 -5 30 -1 37 5 8 4 22 -1 32 -7
12 -6 18 1 18 7 0 8 6 0 19 -7 13 -7 22 0 26 6 4 7 13 1 24 -6 10 -6 23 -1 31
5 8 5 19 0 25 -5 6 -5 17 0 25 4 7 4 24 0 36 -6 14 -5 26 0 29 7 4 6 13 0 25
-6 12 -7 21 0 25 6 4 6 15 0 30 -6 16 -6 25 0 25 5 0 7 6 4 13 -8 23 -10 97
-2 97 4 0 3 11 -2 25 -6 16 -6 25 0 25 6 0 6 9 0 25 -6 16 -6 25 0 25 6 0 6 9
1 23 -5 13 -5 30 -1 37 5 8 4 22 -1 32 -7 12 -6 18 1 18 7 0 8 6 0 19 -7 13
-7 22 0 26 6 4 7 13 1 24 -6 10 -6 23 -1 31 5 8 5 19 0 25 -5 6 -5 17 0 25 4
7 4 24 0 36 -6 14 -5 26 0 29 7 4 6 13 0 25 -6 12 -7 21 0 25 6 4 6 15 0 30
-6 16 -6 25 0 25 5 0 7 6 4 13 -8 23 -10 97 -2 97 4 0 3 11 -2 25 -6 16 -6 25
0 25 6 0 6 9 0 25 -6 16 -6 25 0 25 6 0 6 9 1 23 -5 13 -5 30 -1 37 5 8 4 22
-1 31 -5 11 -5 27 1 43 6 16 6 26 0 26 -6 0 -6 9 0 25 6 15 6 26 0 30 -7 4 -6
13 0 25 6 12 7 21 0 25 -6 4 -6 15 0 30 6 16 6 25 0 25 -6 0 -6 9 0 25 6 15 6
26 0 30 -6 4 -6 14 2 28 6 12 11 22 11 22 0 0 -5 10 -11 22 -8 13 -8 24 -2 28
5 3 7 12 4 19 -8 21 -10 156 -2 156 3 0 3 12 -1 27 -4 15 -4 46 -1 70 4 24 3
43 -1 43 -5 0 -4 11 1 25 6 15 6 25 0 25 -5 0 -5 12 0 30 5 18 5 30 0 30 -6 0
-6 10 0 25 6 15 6 25 0 25 -5 0 -5 12 0 30 5 16 5 32 1 34 -8 5 -5 81 4 96 3
6 2 10 -4 10 -7 0 -7 8 -1 25 6 15 6 26 0 30 -7 4 -6 13 0 25 6 12 7 21 0 25
-6 4 -6 15 0 30 6 16 6 25 0 25 -6 0 -6 9 0 25 6 15 6 26 0 30 -6 4 -7 13 -1
23 5 9 10 19 12 22 1 3 -3 14 -9 26 -6 11 -7 26 -2 33 4 7 4 25 0 40 -4 14 -3
38 1 54 4 15 4 27 -1 27 -6 0 -6 10 0 25 5 14 6 25 2 25 -8 0 -6 90 2 98 3 2
1 15 -4 28 -6 14 -6 26 0 29 7 4 6 13 0 25 -7 13 -7 21 0 25 6 4 7 11 4 17 -9
14 -8 124 1 138 3 5 2 10 -2 10 -9 0 -8 74 2 90 3 6 2 10 -4 10 -7 0 -7 8 -1
25 6 15 6 26 0 30 -7 4 -6 13 0 25 6 12 7 21 0 25 -6 4 -6 15 0 30 6 16 6 25
0 25 -6 0 -6 9 0 25 6 15 6 26 0 30 -6 4 -7 13 -1 23 5 9 10 19 12 22 1 3 -3
15 -9 27 -8 13 -8 24 -2 28 5 3 7 12 4 19 -8 21 -10 156 -2 156 3 0 3 12 -1
27 -4 15 -4 46 -1 70 4 24 3 43 -1 43 -5 0 -4 11 1 25 6 15 6 25 0 25 -5 0 -5
12 0 30 5 18 5 30 0 30 -6 0 -6 10 0 25 6 15 6 25 0 25 -5 0 -5 12 0 30 5 16
5 32 1 34 -8 5 -5 81 4 96 3 6 2 10 -4 10 -7 0 -7 8 -1 25 6 15 6 26 0 30 -7
4 -6 13 0 25 6 12 7 21 0 25 -6 4 -6 15 0 30 6 16 6 25 0 25 -6 0 -6 9 0 25 6
15 6 26 0 30 -6 4 -6 14 2 28 6 12 11 22 11 22 0 0 -5 9 -11 21 -6 11 -7 26
-2 33 4 7 4 25 0 40 -4 14 -3 38 1 54 4 15 4 27 -1 27 -6 0 -6 10 0 25 5 14 6
25 2 25 -8 0 -6 90 2 98 3 2 1 15 -4 28 -6 14 -6 26 0 29 7 4 6 13 0 25 -7 13
-7 21 0 25 6 4 7 11 4 17 -9 14 -8 124 1 138 3 5 2 10 -2 10 -9 0 -8 74 2 90
3 6 2 10 -4 10 -7 0 -7 8 -1 25 6 15 6 26 0 30 -7 4 -6 13 0 25 6 12 7 21 0
25 -6 4 -6 15 0 30 6 16 6 25 0 25 -6 0 -6 9 0 25 6 15 6 26 0 30 -6 4 -6 14
2 28 6 12 11 22 11 22 0 0 -5 10 -11 22 -8 13 -8 24 -2 28 5 3 7 12 4 19 -8
21 -10 156 -2 156 3 0 3 12 -1 27 -4 15 -4 46 -1 70 4 24 3 43 -1 43 -5 0 -4
11 1 25 6 15 6 25 0 25 -5 0 -5 12 0 30 5 18 5 30 0 30 -6 0 -6 10 0 25 6 15
6 25 0 25 -5 0 -5 12 0 30 5 16 5 32 1 34 -8 5 -5 81 4 96 3 6 2 10 -4 10 -7
0 -7 8 -1 25 6 15 6 26 0 30 -7 4 -6 13 0 25 6 12 7 21 0 25 -6 4 -6 15 0 30
6 16 6 25 0 25 -6 0 -6 9 0 25 6 15 6 26 0 30 -6 4 -6 14 2 28 6 12 11 22 11
22 0 0 -5 10 -11 22 -8 14 -9 24 -2 28 6 4 7 13 1 24 -6 10 -6 23 -1 31 5 8 5
19 0 25 -5 6 -5 17 0 25 4 7 4 24 0 36 -6 14 -5 26 0 29 7 4 6 13 0 25 -6 12
-7 21 0 25 6 4 6 15 0 30 -6 16 -6 25 0 25 5 0 7 6 4 13 -8 23 -10 97 -2 97 4
0 3 11 -2 25 -6 16 -6 25 0 25 6 0 6 9 0 25 -6 15 -6 26 0 30 6 4 7 13 1 24
-6 10 -6 23 -1 31 5 8 5 21 0 31 -5 9 -7 19 -4 22 3 3 8 30 10 59 2 29 5 60 7
68 34 137 83 227 173 315 83 82 84 83 149 115 28 14 52 28 53 33 2 4 11 7 20
7 10 0 37 7 61 15 24 9 80 18 125 21 44 3 82 7 83 8 6 5 63 0 63 -6z"/>
</g>
</svg>
